<?xml version="1.0" encoding="UTF-8"?>
<!DOCTYPE svg PUBLIC "-//W3C//DTD SVG 1.1//EN" "http://www.w3.org/Graphics/SVG/1.1/DTD/svg11.dtd">
<svg xmlns="http://www.w3.org/2000/svg" xmlns:xlink="http://www.w3.org/1999/xlink" version="1.1" width="50px" height="50px" viewBox="-0.5 -0.5 50 50" class="ge-export-svg-dark"><defs><style type="text/css">svg.ge-export-svg-dark:not(mjx-container &gt; svg) { filter: invert(100%) hue-rotate(180deg); }&#xa;svg.ge-export-svg-dark foreignObject img,&#xa;svg.ge-export-svg-dark image:not(svg.ge-export-svg-dark switch image),&#xa;svg.ge-export-svg-dark svg:not(mjx-container &gt; svg)&#xa;{ filter: invert(100%) hue-rotate(180deg) }</style></defs><g><g data-cell-id="0"><g data-cell-id="1"><g data-cell-id="SMxOwZAq8BaQxHtkUUqD-1"><g><rect x="0" y="0" width="50" height="50" fill="none" stroke="none" pointer-events="all"/><path d="M 4.2 50 L 4.2 25.99 L 2.19 25.99 C 0.65 25.93 0 24.29 0.9 23.17 L 23.18 1.21 C 24.66 0 25.27 0.12 26.58 1.08 L 36.8 10.98 L 36.8 4.95 C 36.8 4.28 37.35 3.47 38.28 3.47 L 42.77 3.47 C 43.51 3.47 44.21 4.07 44.21 4.99 L 44.21 18.49 L 48.96 23.15 C 50 24.38 49.09 25.99 47.66 25.99 L 45.69 25.99 L 45.69 50 L 30.13 50 L 30.13 31.99 L 19.76 31.99 L 19.76 50 Z" fill="#000000" stroke="none" pointer-events="all"/></g></g></g></g></g></svg>