<?xml version="1.0" encoding="UTF-8"?>
<!DOCTYPE svg PUBLIC "-//W3C//DTD SVG 1.1//EN" "http://www.w3.org/Graphics/SVG/1.1/DTD/svg11.dtd">
<svg xmlns="http://www.w3.org/2000/svg" xmlns:xlink="http://www.w3.org/1999/xlink" version="1.1" width="126px" height="118px" viewBox="-0.5 -0.5 126 118"><defs/><g><g data-cell-id="0"><g data-cell-id="1"><g data-cell-id="jO6dgmZSRIfbelJLF-w5-13"><g><rect x="0" y="0" width="125.87" height="118" fill="none" stroke="none" pointer-events="all"/><path d="M 125.87 58.95 C 125.87 64.84 123.76 70.18 120.35 74.16 C 119.76 82.56 114.91 89.65 108.15 92.84 L 108.15 92.92 C 99.89 98.2 94.97 107.2 93.46 118 L 85.84 118 L 85.84 92.94 C 85.89 85.13 88.12 80.13 92.81 77.05 C 94.52 75.97 96.09 74.73 97.42 73.35 C 100.9 74.72 103.98 77.41 105.94 81.24 C 106.35 82 107.08 82.41 107.8 82.41 C 108.15 82.41 108.52 82.31 108.85 82.11 C 109.9 81.47 110.27 80.05 109.68 78.92 L 109.67 78.92 C 107.47 74.63 104.13 71.47 100.34 69.59 C 102.28 66.3 103.36 62.41 103.31 57.71 C 103.31 57.68 103.34 57.67 103.34 57.63 C 103.34 55.51 103.06 53.44 102.54 51.5 C 106.99 50.57 110.92 48.09 113.8 44.6 C 114.6 43.63 114.54 42.15 113.66 41.28 C 112.78 40.41 111.45 40.49 110.66 41.43 C 108.15 44.45 104.74 46.49 100.89 47.06 C 97.79 40.74 92.01 36.27 85.25 35.45 C 85.7 31.44 87.34 27.88 89.82 25.16 C 90.63 24.25 90.63 22.77 89.82 21.86 C 88.99 20.93 87.61 20.93 86.78 21.86 C 83.62 25.34 81.5 29.98 80.96 35.15 C 73.01 34.04 66.9 26.65 66.89 17.64 C 66.89 16.36 65.92 15.29 64.78 15.29 C 63.57 15.29 62.63 16.36 62.63 17.64 C 62.63 19.16 62.77 20.61 63.02 22.05 C 60.01 24.91 56.26 26.35 52.51 26.35 C 50.66 26.35 48.8 25.99 47.05 25.28 C 47.05 25.28 47.03 25.27 47 25.27 C 44.84 24.41 42.85 23.06 41.14 21.17 C 40.33 20.25 38.96 20.25 38.12 21.17 C 37.28 22.08 37.28 23.56 38.12 24.47 C 39.88 26.39 41.86 27.88 43.96 28.96 C 43.54 34.79 40.46 39.8 36.13 42.62 C 33.63 38.46 29.88 35.16 25.27 33.56 C 24.13 33.17 22.93 33.85 22.57 35.08 C 22.25 36.31 22.82 37.62 23.96 38.01 C 27.38 39.2 30.13 41.52 32.11 44.47 C 30.78 44.86 29.42 45.08 27.97 45.08 C 27.97 45.08 27.97 45.08 27.94 45.08 L 27.75 45.08 C 22.28 45.08 17.24 47.47 13.57 51.39 C 12.71 52.29 12.69 53.78 13.54 54.7 C 13.94 55.17 14.51 55.4 15.08 55.4 C 15.56 55.4 16.1 55.18 16.52 54.74 C 19.43 51.63 23.39 49.75 27.75 49.75 L 27.98 49.75 L 27.98 49.75 L 28 49.75 C 38.27 49.75 46.8 41.36 48.14 30.48 C 49.59 30.82 51.06 31.02 52.54 31.02 C 56.71 31.02 60.91 29.59 64.45 26.79 C 65.74 30.04 67.8 32.87 70.27 35.06 C 67.74 38.49 66.25 42.55 65.86 46.71 C 64.78 46.52 63.67 46.42 62.55 46.42 C 59.34 46.42 56.07 47.26 53.02 49.05 C 51.98 49.65 51.58 51.08 52.14 52.21 C 52.52 52.98 53.28 53.44 54.04 53.44 C 54.39 53.44 54.71 53.36 55.01 53.15 C 57.46 51.74 60.01 51.08 62.55 51.08 C 63.69 51.08 64.8 51.21 65.86 51.46 C 66.32 56.2 68.19 60.84 71.39 64.53 C 71.83 65.02 72.38 65.25 72.92 65.25 C 73.45 65.25 73.98 65.04 74.42 64.6 C 75.28 63.7 75.31 62.23 74.48 61.3 L 74.47 61.3 C 71.61 57.98 70.1 53.78 70 49.53 C 70 49.46 70.02 49.42 70 49.35 C 70 49.27 70 49.17 70 49.09 C 70 44.96 71.3 40.88 73.88 37.59 C 76.59 39.07 79.67 39.94 82.95 39.94 C 82.95 39.94 82.96 39.96 82.99 39.96 C 82.99 39.96 83 39.96 83.03 39.96 C 91.88 39.98 99.04 47.83 99.08 57.56 C 97.39 57.07 95.67 56.82 93.9 56.82 C 91.36 56.82 88.78 57.34 86.31 58.45 C 85.21 58.95 84.69 60.31 85.13 61.49 C 85.58 62.68 86.81 63.26 87.9 62.78 C 89.89 61.91 91.91 61.48 93.91 61.48 C 95.52 61.48 97.11 61.74 98.61 62.25 C 98.08 64.88 97.06 66.98 95.48 68.84 C 95.35 68.95 95.24 69.09 95.15 69.24 C 93.94 70.56 92.47 71.76 90.67 72.96 C 84.5 76.91 81.54 84.1 81.6 92.88 L 81.6 117.93 L 74.32 117.93 L 74.32 94.17 C 74.32 85.42 69.31 77.12 63.02 74.18 C 60.03 72.89 56.89 70.75 54.6 67.95 C 51.35 70.36 47.45 71.8 43.25 71.8 C 39.04 71.8 35.14 70.39 31.91 67.99 C 28.69 70.31 24.8 71.66 20.66 71.66 C 9.22 71.66 0 61.51 0 48.99 C 0 39.64 5.15 31.61 12.54 28.16 C 14.53 18.17 22.59 10.71 32.29 10.71 C 32.8 10.71 33.27 10.75 33.76 10.79 C 37.41 4.93 43.56 1.08 50.51 1.08 C 53.95 1.08 57.19 2.02 60.03 3.7 C 63.22 1.35 67.06 0 71.18 0 C 76.47 0 81.31 2.27 84.92 5.95 C 86.44 5.55 88 5.32 89.64 5.32 C 97.83 5.32 104.91 10.72 108.06 18.47 C 116.37 21.23 122.41 29.69 122.41 39.71 C 122.41 41.71 122.17 43.66 121.72 45.5 C 124.31 49.23 125.87 53.88 125.87 58.95 Z" fill="#ffffff" stroke="none" pointer-events="all"/></g></g></g></g></g></svg>