<?xml version="1.0" encoding="UTF-8"?>
<!DOCTYPE svg PUBLIC "-//W3C//DTD SVG 1.1//EN" "http://www.w3.org/Graphics/SVG/1.1/DTD/svg11.dtd">
<svg xmlns="http://www.w3.org/2000/svg" xmlns:xlink="http://www.w3.org/1999/xlink" version="1.1" width="128px" height="128px" viewBox="-0.5 -0.5 128 128"><defs/><g><g data-cell-id="0"><g data-cell-id="1"><g data-cell-id="sTBtPnwlkQVCMq7ChAag-2"><g><path d="M 64.16 128 C 26.41 128 0 97.24 0 64.49 C 0 25.34 31.53 0 64.64 0 C 96.52 0 128 26.17 128 63.97 C 128 97.85 101.05 128 64.16 128 Z" fill="#0d2636" stroke="none" pointer-events="all"/><path d="M 50.31 113.99 C 50.31 116.76 48.22 117.89 45.07 116.83 C 26.13 110.19 7.92 89.69 7.92 64.08 C 7.92 29.46 37.54 7.62 63.21 7.62 C 96.53 7.62 120.23 34.93 120.23 63.75 C 120.23 87.54 104.93 109.43 81.99 117.11 C 79.4 117.8 77.79 116.42 77.79 114.13 L 77.79 97.47 C 77.79 94.25 76.47 90.82 74.05 88.42 C 83.37 87.36 89.01 85.03 93.34 80.57 C 97.59 76.35 99.5 70.16 99.85 62.52 C 100.09 56.44 98.47 50.52 94.07 46 C 95.6 42.27 95.86 37.33 93.54 31.22 C 88.93 30.86 83.67 33.63 78.3 36.95 C 68.85 34.49 59.4 34.17 49.95 37.09 C 45.72 34.34 41.89 31.25 34.57 31.22 C 32.63 36.61 32.32 41.54 33.99 45.9 C 28.75 51.71 28.15 57.41 28.25 63.09 C 28.83 74.06 32.83 79.6 37.29 82.91 C 40.99 85.65 46.18 87.37 54.09 88.54 C 51.96 90.64 50.77 93.14 50.57 96.07 C 45.92 98.19 39.27 99.27 34.72 92.81 C 32.69 89.57 29.92 85.91 24.65 85.93 C 23.78 85.9 22.93 86.23 22.81 86.61 C 22.69 87.02 23.17 87.88 23.76 88.21 C 28.37 91.14 29.12 92.79 31 96.8 C 32.75 101.48 35.77 103.29 39.05 104.55 C 42.4 105.73 47.81 105.41 50.31 104.55 Z" fill="#ffffff" stroke="none" pointer-events="all"/></g></g></g></g></g></svg>