<?xml version="1.0" encoding="UTF-8"?>
<!DOCTYPE svg PUBLIC "-//W3C//DTD SVG 1.1//EN" "http://www.w3.org/Graphics/SVG/1.1/DTD/svg11.dtd">
<svg xmlns="http://www.w3.org/2000/svg" xmlns:xlink="http://www.w3.org/1999/xlink" version="1.1" width="128px" height="128px" viewBox="-0.5 -0.5 128 128"><defs/><g><g data-cell-id="0"><g data-cell-id="1"><g data-cell-id="jO6dgmZSRIfbelJLF-w5-1"><g><rect x="-1" y="0" width="128" height="128" fill="none" stroke="none" pointer-events="all"/><path d="M 9.75 128 L 9.75 66.52 L 4.61 66.52 C 0.67 66.37 -1 62.19 1.3 59.33 L 58.33 3.1 C 62.13 0 63.7 0.31 67.03 2.77 L 93.21 28.1 L 93.21 12.68 C 93.21 10.96 94.63 8.89 97 8.89 L 108.49 8.89 C 110.38 8.89 112.18 10.43 112.18 12.78 L 112.18 47.34 L 124.34 59.27 C 127 62.42 124.67 66.52 121.01 66.52 L 115.97 66.52 L 115.97 128 L 76.14 128 L 76.14 81.89 L 49.58 81.89 L 49.58 128 Z" fill="#ffffff" stroke="none" pointer-events="all"/></g></g></g></g></g></svg>