<?xml version="1.0" encoding="UTF-8"?>
<!DOCTYPE svg PUBLIC "-//W3C//DTD SVG 1.1//EN" "http://www.w3.org/Graphics/SVG/1.1/DTD/svg11.dtd">
<svg xmlns="http://www.w3.org/2000/svg" xmlns:xlink="http://www.w3.org/1999/xlink" version="1.1" width="128px" height="128px" viewBox="-0.5 -0.5 128 128"><defs/><g><g data-cell-id="0"><g data-cell-id="1"><g data-cell-id="jO6dgmZSRIfbelJLF-w5-1"><g><rect x="0" y="0" width="128" height="128" fill="none" stroke="none" pointer-events="all"/><path d="M 10.75 128 L 10.75 66.52 L 5.61 66.52 C 1.67 66.37 0 62.19 2.3 59.33 L 59.33 3.1 C 63.13 0 64.7 0.31 68.03 2.77 L 94.21 28.1 L 94.21 12.68 C 94.21 10.96 95.63 8.89 98 8.89 L 109.49 8.89 C 111.38 8.89 113.18 10.43 113.18 12.78 L 113.18 47.34 L 125.34 59.27 C 128 62.42 125.67 66.52 122.01 66.52 L 116.97 66.52 L 116.97 128 L 77.14 128 L 77.14 81.89 L 50.58 81.89 L 50.58 128 Z" fill="#000000" stroke="none" pointer-events="all"/></g></g></g></g></g></svg>