<?xml version="1.0" encoding="UTF-8"?>
<!DOCTYPE svg PUBLIC "-//W3C//DTD SVG 1.1//EN" "http://www.w3.org/Graphics/SVG/1.1/DTD/svg11.dtd">
<svg xmlns="http://www.w3.org/2000/svg" xmlns:xlink="http://www.w3.org/1999/xlink" version="1.1" width="129px" height="129px" viewBox="-0.5 -0.5 129 129"><defs><linearGradient x1="0%" y1="0%" x2="0%" y2="100%" id="mx-gradient-0095db-1-006391-1-s-0"><stop offset="0%" style="stop-color: rgb(0, 149, 219); stop-opacity: 1;"/><stop offset="100%" style="stop-color: rgb(0, 99, 145); stop-opacity: 1;"/></linearGradient></defs><g><g data-cell-id="0"><g data-cell-id="1"><g data-cell-id="c9nAjBXXhS5QgNcs_1YC-1"><g><path d="M 13.75 128 C 10.1 128 6.6 126.54 4.03 123.95 C 1.45 121.35 0 117.83 0 114.16 L 0 13.84 C 0 10.17 1.45 6.65 4.03 4.05 C 6.6 1.46 10.1 0 13.75 0 L 114.25 0 C 117.9 0 121.4 1.46 123.97 4.05 C 126.55 6.65 128 10.17 128 13.84 L 128 114.16 C 128 117.83 126.55 121.35 123.97 123.95 C 121.4 126.54 117.9 128 114.25 128 Z" fill="url(#mx-gradient-0095db-1-006391-1-s-0)" stroke="none" pointer-events="all"/><path d="M 52.09 43.97 L 68.05 44.03 L 68.12 51.85 C 68.88 46.4 73.59 43.91 81.7 43.97 C 91.49 43.97 95.22 47.93 97.28 52.7 C 98.95 56.67 99.96 61.97 100.02 67.02 L 100.06 100.26 L 84.05 100.26 L 84.02 67.47 C 84.02 64.4 82.05 60.06 76.27 60.06 C 71.51 60.06 68.07 62.29 68.07 68.31 L 68.1 100.25 L 52.09 100.31 Z M 36.09 40.04 C 32.23 40.04 28.18 37.11 28.18 31.96 C 28.18 27.68 31.36 23.93 36.09 23.93 C 41.55 23.93 44.19 28.49 44.19 31.96 C 44.19 36.77 40.16 40.04 36.09 40.04 Z M 28.17 100.31 L 28.2 43.98 L 44.16 44.03 L 44.21 100.27 Z" fill="#ffffff" stroke="none" pointer-events="all"/><path d="M 0 13.84 C 0 10.17 1.45 6.65 4.03 4.05 C 6.6 1.46 10.1 0 13.75 0 L 114.25 0 C 117.9 0 121.4 1.46 123.97 4.05 C 126.55 6.65 128 10.17 128 13.84 L 128 47.57 C 87.61 67.39 40.39 67.39 0 47.57 Z" fill-opacity="0.2" fill="#ffffff" stroke="none" pointer-events="all"/></g></g></g></g></g></svg>