<?xml version="1.0" encoding="UTF-8"?>
<!DOCTYPE svg PUBLIC "-//W3C//DTD SVG 1.1//EN" "http://www.w3.org/Graphics/SVG/1.1/DTD/svg11.dtd">
<svg xmlns="http://www.w3.org/2000/svg" xmlns:xlink="http://www.w3.org/1999/xlink" version="1.1" width="129px" height="128px" viewBox="-0.5 -0.5 129 128"><defs/><g><g data-cell-id="0"><g data-cell-id="1"><g data-cell-id="jO6dgmZSRIfbelJLF-w5-2"><g><path d="M 36.73 36.83 C 36.54 27.16 39.98 17.81 46.28 10.88 C 52.58 3.96 61.21 0.04 70.24 0 C 90.36 0.21 106.77 16.59 107.51 37.22 C 108.26 46.7 105.22 56.1 99.09 63.2 C 92.97 70.31 84.29 74.51 75.08 74.82 C 54.71 75.23 37.72 58.4 36.73 36.83 Z M 0 128 C 0.81 110 7.88 93.23 19.51 81.77 C 28.73 73.11 41.58 72.59 51.27 80.48 C 56.8 84.36 62.87 87.48 69.3 89.75 C 75.91 92.48 83.15 92.02 89.48 88.47 C 92.95 86.88 96.02 84.59 98.49 81.77 C 100.94 79 105.18 78.44 108.32 80.48 C 113.85 84 118.81 90.21 122.71 98.51 C 126.48 107.92 128.44 117.9 128.5 127.97 Z" fill="#000000" stroke="none" pointer-events="all"/></g></g></g></g></g></svg>