<?xml version="1.0" encoding="UTF-8"?>
<!DOCTYPE svg PUBLIC "-//W3C//DTD SVG 1.1//EN" "http://www.w3.org/Graphics/SVG/1.1/DTD/svg11.dtd">
<svg xmlns="http://www.w3.org/2000/svg" xmlns:xlink="http://www.w3.org/1999/xlink" version="1.1" width="100px" height="90px" viewBox="-0.5 -0.5 100 90" class="ge-export-svg-dark"><defs><style type="text/css">svg.ge-export-svg-dark:not(mjx-container &gt; svg) { filter: invert(100%) hue-rotate(180deg); }&#xa;svg.ge-export-svg-dark foreignObject img,&#xa;svg.ge-export-svg-dark image:not(svg.ge-export-svg-dark switch image),&#xa;svg.ge-export-svg-dark svg:not(mjx-container &gt; svg)&#xa;{ filter: invert(100%) hue-rotate(180deg) }</style></defs><g><g data-cell-id="0"><g data-cell-id="1"><g data-cell-id="dzPq7o2XmD4CHobwjCmy-1"><g><rect x="0" y="0" width="100" height="89.99" fill="none" stroke="none" pointer-events="all"/><path d="M 28.91 40.23 C 22.31 42.41 15.02 41.26 9.48 37.18 C 2.95 32.35 0 24.28 1.94 16.59 L 13.84 27.84 L 25.64 24.88 L 28.71 13.82 L 16.82 2.86 C 23.99 0.91 31.71 2.8 37.04 7.82 C 42.29 12.81 44.41 20.1 42.59 26.98 L 48.44 32.41 L 44.48 32.41 L 35.36 40.99 L 40.81 46.14 L 37.93 48.81 Z M 46.56 35.65 C 49.62 36.09 52.72 35.13 54.94 33.05 C 57.15 30.98 58.24 28.03 57.86 25.07 L 84.83 0 L 100 14.01 L 73.23 38.89 C 70.08 38.34 66.85 39.28 64.55 41.41 C 62.25 43.55 61.16 46.62 61.63 49.67 L 55.38 55.48 L 50.03 50.33 L 23.26 75.21 L 24.35 76.17 L 20.19 80.93 L 6.6 88.94 L 4.42 86.84 L 12.95 74.36 L 18.1 70.45 L 19.1 71.5 L 45.96 46.52 L 40.41 41.37 Z M 65.4 48.14 L 93.06 73.97 C 95.68 77.61 95.35 82.51 92.27 85.8 C 88.63 89.65 82.45 89.99 78.39 86.56 L 47.85 57.86 L 50.82 55.2 L 56.18 60.25 L 65.4 51.76 Z" fill="#000000" stroke="none" pointer-events="all"/></g></g></g></g></g></svg>