<?xml version="1.0" encoding="UTF-8"?>
<!DOCTYPE svg PUBLIC "-//W3C//DTD SVG 1.1//EN" "http://www.w3.org/Graphics/SVG/1.1/DTD/svg11.dtd">
<svg xmlns="http://www.w3.org/2000/svg" xmlns:xlink="http://www.w3.org/1999/xlink" version="1.1" width="128px" height="128px" viewBox="-0.5 -0.5 128 128"><defs/><g><g data-cell-id="0"><g data-cell-id="1"><g data-cell-id="jO6dgmZSRIfbelJLF-w5-3"><g><rect x="0" y="0" width="128" height="127.5" fill="none" stroke="none" pointer-events="all"/><path d="M 43.43 75.67 L 50.48 82.69 L 31.3 101.76 L 29.5 110.05 L 6.25 125.35 L 0.44 119.55 L 15.78 96.39 L 24.3 94.68 L 43.43 75.67 Z M 111.82 0.05 C 108.17 0.08 104.49 1.53 101.64 4.34 L 69.4 36.3 L 74.03 40.98 L 107.49 7.75 C 107.88 7.36 108.43 7.12 108.99 7.1 C 109.59 7.09 110.17 7.31 110.59 7.73 C 111.43 8.56 111.43 9.95 110.59 10.78 C 110.58 10.8 110.58 10.8 110.56 10.8 L 77.08 44.08 L 82.1 49.17 L 115.61 15.87 C 116 15.48 116.55 15.24 117.11 15.23 C 117.71 15.21 118.29 15.43 118.72 15.85 C 119.55 16.7 119.55 18.07 118.72 18.9 C 118.7 18.92 118.7 18.92 118.7 18.94 L 85.13 52.25 L 89.74 56.92 L 122.16 24.79 C 127.86 19.16 128 10.17 122.47 4.68 L 121.89 4.1 C 119.13 1.34 115.49 0 111.82 0.05 L 111.82 0.05 Z M 29.85 0.58 C 26.31 0.66 22.78 1.36 19.4 2.75 L 36.62 20.01 C 39.15 22.53 39.13 26.57 36.59 29.06 L 29.13 36.4 C 26.6 38.89 22.54 38.88 20.03 36.35 L 3.19 19.48 C 0 28.03 0.46 38.88 8.26 48.54 C 15.49 56.58 25.19 59.7 34.61 58.46 L 96.67 120.51 C 102.78 126.31 112.73 127.5 120.75 120.09 C 127.03 113.78 127.76 103.27 120.41 95.78 L 59.33 34.89 C 60.77 26.69 59.59 15.06 47.71 6.04 C 43.05 2.64 37.23 0.73 31.28 0.58 C 30.8 0.58 30.32 0.58 29.85 0.58 Z M 109.02 99.76 C 113.94 99.76 117.98 103.8 117.98 108.68 C 117.98 113.56 113.92 117.56 109.01 117.56 C 104.09 117.56 100.07 113.53 100.07 108.65 C 100.07 103.76 104.11 99.76 109.02 99.76 Z" fill="#000000" stroke="none" pointer-events="all"/></g></g></g></g></g></svg>