<svg height="200" overflow="visible" viewBox="0 0 342 200" width="342" xmlns="http://www.w3.org/2000/svg"><g><defs><path id="path-17157059613592076" d="M151.57503025413473 200.63656803669394 C151.57503025413473 200.63656803669394 111.16034691407826 209.8008813742243 111.16034691407826 209.8008813742243 C111.16034691407826 209.8008813742243 70.74566357402178 200.63656803669394 70.74566357402178 200.63656803669394 C70.74566357402178 200.63656803669394 61.660346914078254 98.8008813742243 61.660346914078254 98.8008813742243 C61.660346914078254 98.8008813742243 160.66034691407825 98.8008813742243 160.66034691407825 98.8008813742243 C160.66034691407825 98.8008813742243 151.57503025413473 200.63656803669394 151.57503025413473 200.63656803669394 Z" vector-effect="non-scaling-stroke"/></defs> <path style="stroke-width: 0px; stroke-linecap: butt; stroke-linejoin: miter; fill: rgb(0, 125, 183);" d="M89.91468334005651 146.83568666246958 C89.91468334005651 146.83568666246958 49.5 156 49.5 156 C49.5 156 9.0853166599436 146.83568666246958 9.0853166599436 146.83568666246958 C9.0853166599436 146.83568666246958 0 45 0 45 C0 45 99 45 99 45 C99 45 89.91468334005651 146.83568666246958 89.91468334005651 146.83568666246958 Z" vector-effect="non-scaling-stroke"/></g><g><defs><path id="path-17157059613602093" d="M110.92073416700286 204.5798183289864 C110.92073416700286 204.5798183289864 110.92073416700286 204.5798183289864 110.92073416700286 204.5798183289864 C110.92073416700286 204.5798183289864 146.51321097216626 196.5136253260185 146.51321097216626 196.5136253260185 C146.51321097216626 196.5136253260185 154.75988301734577 103.89216656174115 154.75988301734577 103.89216656174115 C154.75988301734577 103.89216656174115 110.92073416700286 103.89216656174115 110.92073416700286 103.89216656174115 C110.92073416700286 103.89216656174115 110.92073416700286 204.5798183289864 110.92073416700286 204.5798183289864 Z" vector-effect="non-scaling-stroke"/></defs> <path style="stroke-width: 0px; stroke-linecap: butt; stroke-linejoin: miter; fill: rgb(0, 157, 230);" d="M49.2603872529246 150.778936954762 C49.2603872529246 150.778936954762 49.2603872529246 150.778936954762 49.2603872529246 150.778936954762 C49.2603872529246 150.778936954762 84.85286405808802 142.7127439517941 84.85286405808802 142.7127439517941 C84.85286405808802 142.7127439517941 93.09953610326761 50.091285187516746 93.09953610326761 50.091285187516746 C93.09953610326761 50.091285187516746 49.2603872529246 50.091285187516746 49.2603872529246 50.091285187516746 C49.2603872529246 50.091285187516746 49.2603872529246 150.778936954762 49.2603872529246 150.778936954762 Z" vector-effect="non-scaling-stroke"/></g><g><defs><path id="path-17157059613612146" d="M80.98910851149665 116.15118266031115 C80.98910851149665 116.15118266031115 82.07734973779758 128.37026711035162 82.07734973779758 128.37026711035162 C82.07734973779758 128.37026711035162 129.24112545381215 128.37026711035162 129.24112545381215 128.37026711035162 C129.24112545381215 128.37026711035162 127.62373941105297 146.53916719129415 127.62373941105297 146.53916719129415 C127.62373941105297 146.53916719129415 96.22448567970964 146.53916719129415 96.22448567970964 146.53916719129415 C96.22448567970964 146.53916719129415 96.22448567970964 158.75825164133462 96.22448567970964 158.75825164133462 C96.22448567970964 158.75825164133462 126.53549818475203 158.75825164133462 126.53549818475203 158.75825164133462 C126.53549818475203 158.75825164133462 125.0279346510691 176.3880744671283 125.0279346510691 176.3880744671283 C125.0279346510691 176.3880744671283 110.82089552238817 179.4628114039032 110.82089552238817 179.4628114039032 C110.82089552238817 179.4628114039032 97.3027430415491 176.4479719399226 97.3027430415491 176.4479719399226 C97.3027430415491 176.4479719399226 97.3027430415491 176.4479719399226 97.3027430415491 176.4479719399226 C97.3027430415491 176.4479719399226 96.76361436062939 170.3783613634319 96.76361436062939 170.3783613634319 C96.76361436062939 170.3783613634319 85.49183138362251 168.49159097041098 85.49183138362251 168.49159097041098 C85.49183138362251 168.49159097041098 87.17910447761201 185.55238780465865 87.17910447761201 185.55238780465865 C87.17910447761201 185.55238780465865 111.0205728116177 190.88326288335278 111.0205728116177 190.88326288335278 C111.0205728116177 190.88326288335278 136.37958854376777 185.04325928590697 136.37958854376777 185.04325928590697 C136.37958854376777 185.04325928590697 142.61950383219053 116.15118266031115 142.61950383219053 116.15118266031115 C142.61950383219053 116.15118266031115 80.98910851149665 116.15118266031115 80.98910851149665 116.15118266031115 Z" vector-effect="non-scaling-stroke"/></defs> <path style="stroke-width: 0px; stroke-linecap: butt; stroke-linejoin: miter; fill: rgb(247, 247, 247);" d="M19.328761597418293 62.35030128608685 C19.328761597418293 62.35030128608685 20.41700282371926 74.56938573612729 20.41700282371926 74.56938573612729 C20.41700282371926 74.56938573612729 67.58077853973384 74.56938573612729 67.58077853973384 74.56938573612729 C67.58077853973384 74.56938573612729 65.96339249697462 92.73828581706982 65.96339249697462 92.73828581706982 C65.96339249697462 92.73828581706982 34.564138765631355 92.73828581706982 34.564138765631355 92.73828581706982 C34.564138765631355 92.73828581706982 34.564138765631355 104.95737026711026 34.564138765631355 104.95737026711026 C34.564138765631355 104.95737026711026 64.87515127067365 104.95737026711026 64.87515127067365 104.95737026711026 C64.87515127067365 104.95737026711026 63.3675877369908 122.58719309290393 63.3675877369908 122.58719309290393 C63.3675877369908 122.58719309290393 49.160548608309796 125.66193002967884 49.160548608309796 125.66193002967884 C49.160548608309796 125.66193002967884 35.64239612747076 122.64709056569825 35.64239612747076 122.64709056569825 C35.64239612747076 122.64709056569825 35.64239612747076 122.64709056569825 35.64239612747076 122.64709056569825 C35.64239612747076 122.64709056569825 35.10326744655106 116.57747998920763 35.10326744655106 116.57747998920763 C35.10326744655106 116.57747998920763 23.831484469544193 114.69070959618671 23.831484469544193 114.69070959618671 C23.831484469544193 114.69070959618671 25.518757563533654 131.75150643043435 25.518757563533654 131.75150643043435 C25.518757563533654 131.75150643043435 49.36022589753941 137.08238150912848 49.36022589753941 137.08238150912848 C49.36022589753941 137.08238150912848 74.71924162968946 131.24237791168264 74.71924162968946 131.24237791168264 C74.71924162968946 131.24237791168264 80.95915691811217 62.35030128608685 80.95915691811217 62.35030128608685 C80.95915691811217 62.35030128608685 19.328761597418293 62.35030128608685 19.328761597418293 62.35030128608685 Z" vector-effect="non-scaling-stroke"/></g><g><defs><path id="path-17157059613622187" d="M110.92073416700279 128.37026711035162 C110.92073416700279 128.37026711035162 129.24112545381197 128.37026711035162 129.24112545381197 128.37026711035162 C129.24112545381197 128.37026711035162 127.62373941105281 146.53916719129415 127.62373941105281 146.53916719129415 C127.62373941105281 146.53916719129415 110.92073416700279 146.53916719129415 110.92073416700279 146.53916719129415 C110.92073416700279 146.53916719129415 110.92073416700279 158.75825164133462 110.92073416700279 158.75825164133462 C110.92073416700279 158.75825164133462 126.53549818475189 158.75825164133462 126.53549818475189 158.75825164133462 C126.53549818475189 158.75825164133462 125.02793465106895 176.3880744671283 125.02793465106895 176.3880744671283 C125.02793465106895 176.3880744671283 110.92073416700279 179.44284557963843 110.92073416700279 179.44284557963843 C110.92073416700279 179.44284557963843 110.92073416700279 190.863297059088 110.92073416700279 190.863297059088 C110.92073416700279 190.863297059088 111.02057281161757 190.88326288335278 111.02057281161757 190.88326288335278 C111.02057281161757 190.88326288335278 136.3795885437676 185.04325928590697 136.3795885437676 185.04325928590697 C136.3795885437676 185.04325928590697 142.61950383219036 116.15118266031115 142.61950383219036 116.15118266031115 C142.61950383219036 116.15118266031115 110.92073416700279 116.15118266031115 110.92073416700279 116.15118266031115 C110.92073416700279 116.15118266031115 110.92073416700279 128.37026711035162 110.92073416700279 128.37026711035162 Z" vector-effect="non-scaling-stroke"/></defs> <path style="stroke-width: 0px; stroke-linecap: butt; stroke-linejoin: miter; fill: rgb(255, 255, 255);" d="M49.2603872529246 74.56938573612729 C49.2603872529246 74.56938573612729 67.58077853973373 74.56938573612729 67.58077853973373 74.56938573612729 C67.58077853973373 74.56938573612729 65.96339249697462 92.73828581706982 65.96339249697462 92.73828581706982 C65.96339249697462 92.73828581706982 49.2603872529246 92.73828581706982 49.2603872529246 92.73828581706982 C49.2603872529246 92.73828581706982 49.2603872529246 104.95737026711026 49.2603872529246 104.95737026711026 C49.2603872529246 104.95737026711026 64.87515127067365 104.95737026711026 64.87515127067365 104.95737026711026 C64.87515127067365 104.95737026711026 63.367587736990686 122.58719309290393 63.367587736990686 122.58719309290393 C63.367587736990686 122.58719309290393 49.2603872529246 125.64196420541407 49.2603872529246 125.64196420541407 C49.2603872529246 125.64196420541407 49.2603872529246 137.0624156848637 49.2603872529246 137.0624156848637 C49.2603872529246 137.0624156848637 49.360225897539294 137.08238150912848 49.360225897539294 137.08238150912848 C49.360225897539294 137.08238150912848 74.71924162968935 131.24237791168264 74.71924162968935 131.24237791168264 C74.71924162968935 131.24237791168264 80.95915691811217 62.35030128608685 80.95915691811217 62.35030128608685 C80.95915691811217 62.35030128608685 49.2603872529246 62.35030128608685 49.2603872529246 62.35030128608685 C49.2603872529246 62.35030128608685 49.2603872529246 74.56938573612729 49.2603872529246 74.56938573612729 Z" vector-effect="non-scaling-stroke"/></g><g><defs><path id="path-17157059613632204" d="M394.44251714400957 200.63656803669394 C394.44251714400957 200.63656803669394 354.0178499394916 209.8008813742243 354.0178499394916 209.8008813742243 C354.0178499394916 209.8008813742243 313.61315046389666 200.63656803669394 313.61315046389666 200.63656803669394 C313.61315046389666 200.63656803669394 304.5278338039531 98.8008813742243 304.5278338039531 98.8008813742243 C304.5278338039531 98.8008813742243 403.5278338039531 98.8008813742243 403.5278338039531 98.8008813742243 C403.5278338039531 98.8008813742243 394.44251714400957 200.63656803669394 394.44251714400957 200.63656803669394 Z" vector-effect="non-scaling-stroke"/></defs> <path style="stroke-width: 0px; stroke-linecap: butt; stroke-linejoin: miter; fill: rgb(249, 157, 40);" d="M332.9146833400564 146.83568666246958 C332.9146833400564 146.83568666246958 292.49001613553844 156 292.49001613553844 156 C292.49001613553844 156 252.0853166599435 146.83568666246958 252.0853166599435 146.83568666246958 C252.0853166599435 146.83568666246958 243 45 243 45 C243 45 342 45 342 45 C342 45 332.9146833400564 146.83568666246958 332.9146833400564 146.83568666246958 Z" vector-effect="non-scaling-stroke"/></g><g><defs><path id="path-17157059613642221" d="M354.0178499394916 203.86104865545462 C354.0178499394916 203.86104865545462 354.0178499394916 203.86104865545462 354.0178499394916 203.86104865545462 C354.0178499394916 203.86104865545462 389.6203106091165 195.79485565248672 389.6203106091165 195.79485565248672 C389.6203106091165 195.79485565248672 397.8569987898345 103.17339688820935 397.8569987898345 103.17339688820935 C397.8569987898345 103.17339688820935 354.0178499394916 103.17339688820935 354.0178499394916 103.17339688820935 C354.0178499394916 103.17339688820935 354.0178499394916 203.86104865545462 354.0178499394916 203.86104865545462 Z" vector-effect="non-scaling-stroke"/></defs> <path style="stroke-width: 0px; stroke-linecap: butt; stroke-linejoin: miter; fill: rgb(255, 202, 62);" d="M292.49001613553844 150.0601672812303 C292.49001613553844 150.0601672812303 292.49001613553844 150.0601672812303 292.49001613553844 150.0601672812303 C292.49001613553844 150.0601672812303 328.0924768051633 141.99397427826239 328.0924768051633 141.99397427826239 C328.0924768051633 141.99397427826239 336.32916498588133 49.372515513985036 336.32916498588133 49.372515513985036 C336.32916498588133 49.372515513985036 292.49001613553844 49.372515513985036 292.49001613553844 49.372515513985036 C292.49001613553844 49.372515513985036 292.49001613553844 150.0601672812303 292.49001613553844 150.0601672812303 Z" vector-effect="non-scaling-stroke"/></g><g><defs><path id="path-17157059613642259" d="M361.6184971098269 196.38648071365728 C361.6184971098269 196.38648071365728 361.6184971098269 184.75687900489993 361.6184971098269 184.75687900489993 C361.6184971098269 184.75687900489993 373.4204831777089 181.66101269003624 373.4204831777089 181.66101269003624 C373.4204831777089 181.66101269003624 375.39587965021525 162.92499057670545 375.39587965021525 162.92499057670545 C375.39587965021525 162.92499057670545 362.1627389951092 163.5783389873098 362.1627389951092 163.5783389873098 C362.1627389951092 163.5783389873098 362.9085519490147 116.94936549817803 362.9085519490147 116.94936549817803 C362.9085519490147 116.94936549817803 392.9124055135619 116.94936549817803 392.9124055135619 116.94936549817803 C392.9124055135619 116.94936549817803 391.8340002964283 129.25241864555835 391.8340002964283 129.25241864555835 C391.8340002964283 129.25241864555835 375.0632873869871 129.25241864555835 375.0632873869871 129.25241864555835 C375.0632873869871 129.25241864555835 374.7206165703279 148.45081040331684 374.7206165703279 148.45081040331684 C374.7206165703279 148.45081040331684 389.7779753964728 147.3853499183313 389.7779753964728 147.3853499183313 C389.7779753964728 147.3853499183313 385.7062398102864 190.87825103656218 385.7062398102864 190.87825103656218 C385.7062398102864 190.87825103656218 361.6184971098269 196.38648071365728 361.6184971098269 196.38648071365728 Z" vector-effect="non-scaling-stroke"/></defs> <path style="stroke-width: 0px; stroke-linecap: butt; stroke-linejoin: miter; fill: rgb(255, 255, 255);" d="M296.70609159626497 141.43711521547925 C296.70609159626497 141.43711521547925 296.70609159626497 129.80751350672188 296.70609159626497 129.80751350672188 C296.70609159626497 129.80751350672188 308.508077664147 126.71164719185822 308.508077664147 126.71164719185822 C308.508077664147 126.71164719185822 310.4834741366533 107.9756250785274 310.4834741366533 107.9756250785274 C310.4834741366533 107.9756250785274 297.2503334815473 108.6289734891318 297.2503334815473 108.6289734891318 C297.2503334815473 108.6289734891318 297.99614643545283 62 297.99614643545283 62 C297.99614643545283 62 328 62 328 62 C328 62 326.92159478286635 74.3030531473803 326.92159478286635 74.3030531473803 C326.92159478286635 74.3030531473803 310.1508818734252 74.3030531473803 310.1508818734252 74.3030531473803 C310.1508818734252 74.3030531473803 309.8082110567659 93.50144490513878 309.8082110567659 93.50144490513878 C309.8082110567659 93.50144490513878 324.8655698829109 92.4359844201532 324.8655698829109 92.4359844201532 C324.8655698829109 92.4359844201532 320.7938342967245 135.92888553838407 320.7938342967245 135.92888553838407 C320.7938342967245 135.92888553838407 296.70609159626497 141.43711521547925 296.70609159626497 141.43711521547925 Z" vector-effect="non-scaling-stroke"/></g><g><defs><path id="path-17157059613652285" d="M340.2922780495038 116.94936549817815 C340.2922780495038 116.94936549817815 340.2922780495038 180.83678854127402 340.2922780495038 180.83678854127402 C340.2922780495038 180.83678854127402 335.2026085667707 179.42957657997235 335.2026085667707 179.42957657997235 C335.2026085667707 179.42957657997235 335.2026085667707 177.43937680613143 335.2026085667707 177.43937680613143 C335.2026085667707 177.43937680613143 324.9124055135619 174.36361351928633 324.9124055135619 174.36361351928633 C324.9124055135619 174.36361351928633 326.3737957610793 191.05917828872975 326.3737957610793 191.05917828872975 C326.3737957610793 191.05917828872975 352.62842744923705 196.94936549817817 352.62842744923705 196.94936549817817 C352.62842744923705 196.94936549817817 352.62842744923705 116.94936549817815 352.62842744923705 116.94936549817815 C352.62842744923705 116.94936549817815 340.2922780495038 116.94936549817815 340.2922780495038 116.94936549817815 Z" vector-effect="non-scaling-stroke"/></defs> <path style="stroke-width: 0px; stroke-linecap: butt; stroke-linejoin: miter; fill: rgb(247, 247, 247);" d="M275.3798725359419 62 C275.3798725359419 62 275.3798725359419 125.88742304309585 275.3798725359419 125.88742304309585 C275.3798725359419 125.88742304309585 270.29020305320887 124.48021108179421 270.29020305320887 124.48021108179421 C270.29020305320887 124.48021108179421 270.29020305320887 122.4900113079533 270.29020305320887 122.4900113079533 C270.29020305320887 122.4900113079533 260 119.41424802110816 260 119.41424802110816 C260 119.41424802110816 261.46139024751733 136.1098127905516 261.46139024751733 136.1098127905516 C261.46139024751733 136.1098127905516 287.71602193567514 142 287.71602193567514 142 C287.71602193567514 142 287.71602193567514 62 287.71602193567514 62 C287.71602193567514 62 275.3798725359419 62 275.3798725359419 62 Z" vector-effect="non-scaling-stroke"/></g><g><defs><path id="path-17157059613662302" d="M303.2200436950311 237.91776989558875 C303.2200436950311 237.91776989558875 230.15001960674476 254.43373132837087 230.15001960674476 254.43373132837087 C230.15001960674476 254.43373132837087 157.07999551845836 237.91776989558875 157.07999551845836 237.91776989558875 C157.07999551845836 237.91776989558875 140.65503333146606 54.43373132837088 140.65503333146606 54.43373132837088 C140.65503333146606 54.43373132837088 319.65503333146603 54.43373132837088 319.65503333146603 54.43373132837088 C319.65503333146603 54.43373132837088 303.2200436950311 237.91776989558875 303.2200436950311 237.91776989558875 Z" vector-effect="non-scaling-stroke"/></defs> <path style="stroke-width: 0px; stroke-linecap: butt; stroke-linejoin: miter; fill: rgb(255, 51, 53);" d="M240.56501036356508 183.4840385672179 C240.56501036356508 183.4840385672179 167.49498627527873 200 167.49498627527873 200 C167.49498627527873 200 94.42496218699239 183.4840385672179 94.42496218699239 183.4840385672179 C94.42496218699239 183.4840385672179 78 0 78 0 C78 0 257 0 257 0 C257 0 240.56501036356508 183.4840385672179 240.56501036356508 183.4840385672179 Z" vector-effect="non-scaling-stroke"/></g><g><defs><path id="path-17157059613672319" d="M230.15001960674456 245.021731528201 C230.15001960674456 245.021731528201 230.15001960674456 245.021731528201 230.15001960674456 245.021731528201 C230.15001960674456 245.021731528201 294.5061901294043 230.48408852475396 294.5061901294043 230.48408852475396 C294.5061901294043 230.48408852475396 309.40698000112013 63.61592646250687 309.40698000112013 63.61592646250687 C309.40698000112013 63.61592646250687 230.15001960674456 63.61592646250687 230.15001960674456 63.61592646250687 C230.15001960674456 63.61592646250687 230.15001960674456 245.021731528201 230.15001960674456 245.021731528201 Z" vector-effect="non-scaling-stroke"/></defs> <path style="stroke-width: 0px; stroke-linecap: butt; stroke-linejoin: miter; fill: rgb(255, 122, 99);" d="M167.49498627527873 190.58800019983005 C167.49498627527873 190.58800019983005 167.49498627527873 190.58800019983005 167.49498627527873 190.58800019983005 C167.49498627527873 190.58800019983005 231.85115679793853 176.05035719638295 231.85115679793853 176.05035719638295 C231.85115679793853 176.05035719638295 246.75194666965433 9.182195134135895 246.75194666965433 9.182195134135895 C246.75194666965433 9.182195134135895 167.49498627527873 9.182195134135895 167.49498627527873 9.182195134135895 C167.49498627527873 9.182195134135895 167.49498627527873 190.58800019983005 167.49498627527873 190.58800019983005 Z" vector-effect="non-scaling-stroke"/></g><g><defs><path id="path-17157059613682369" d="M230.0397176628763 221.3318679122744 C230.0397176628763 221.3318679122744 189.19791608313284 211.03062396962565 189.19791608313284 211.03062396962565 C189.19791608313284 211.03062396962565 186.71110862136595 182.79462456911608 186.71110862136595 182.79462456911608 C186.71110862136595 182.79462456911608 209.82437958657803 182.0152870060447 209.82437958657803 182.0152870060447 C209.82437958657803 182.0152870060447 210.68674023864236 193.73532497377215 210.68674023864236 193.73532497377215 C210.68674023864236 193.73532497377215 230.2603215506137 198.67112953989093 230.2603215506137 198.67112953989093 C230.2603215506137 198.67112953989093 250.51576942468242 193.98511265424375 250.51576942468242 193.98511265424375 C250.51576942468242 193.98511265424375 252.66164360540057 167.80736374082016 252.66164360540057 167.80736374082016 C252.66164360540057 167.80736374082016 185.36743039605648 167.80736374082016 185.36743039605648 167.80736374082016 C185.36743039605648 167.80736374082016 178.29807853901764 88.9044312334515 178.29807853901764 88.9044312334515 C178.29807853901764 88.9044312334515 283.034787967061 88.9044312334515 283.034787967061 88.9044312334515 C283.034787967061 88.9044312334515 281.0694078763098 110.92571314382765 281.0694078763098 110.92571314382765 C281.0694078763098 110.92571314382765 203.477004089407 110.92571314382765 203.477004089407 110.92571314382765 C203.477004089407 110.92571314382765 206.60556831550076 145.786081830444 206.60556831550076 145.786081830444 C206.60556831550076 145.786081830444 278.13136518962557 145.786081830444 278.13136518962557 145.786081830444 C278.13136518962557 145.786081830444 272.06475827684756 211.71004646050838 272.06475827684756 211.71004646050838 C272.06475827684756 211.71004646050838 230.0397176628763 221.3318679122744 230.0397176628763 221.3318679122744 Z" vector-effect="non-scaling-stroke"/></defs> <path style="stroke-width: 0px; stroke-linecap: butt; stroke-linejoin: miter; fill: rgb(247, 247, 247);" d="M167.38468433141009 166.89813658390358 C167.38468433141009 166.89813658390358 126.54288275166664 156.59689264125473 126.54288275166664 156.59689264125473 C126.54288275166664 156.59689264125473 124.0560752898997 128.3608932407452 124.0560752898997 128.3608932407452 C124.0560752898997 128.3608932407452 147.1693462551118 127.5815556776738 147.1693462551118 127.5815556776738 C147.1693462551118 127.5815556776738 148.03170690717616 139.30159364540123 148.03170690717616 139.30159364540123 C148.03170690717616 139.30159364540123 167.6052882191475 144.23739821152003 167.6052882191475 144.23739821152003 C167.6052882191475 144.23739821152003 187.86073609321613 139.55138132587285 187.86073609321613 139.55138132587285 C187.86073609321613 139.55138132587285 190.00661027393426 113.3736324124493 190.00661027393426 113.3736324124493 C190.00661027393426 113.3736324124493 122.71239706459028 113.3736324124493 122.71239706459028 113.3736324124493 C122.71239706459028 113.3736324124493 115.64304520755138 34.470699905080664 115.64304520755138 34.470699905080664 C115.64304520755138 34.470699905080664 220.37975463559474 34.470699905080664 220.37975463559474 34.470699905080664 C220.37975463559474 34.470699905080664 218.41437454484355 56.491981815456825 218.41437454484355 56.491981815456825 C218.41437454484355 56.491981815456825 140.8219707579408 56.491981815456825 140.8219707579408 56.491981815456825 C140.8219707579408 56.491981815456825 143.95053498403445 91.35235050207314 143.95053498403445 91.35235050207314 C143.95053498403445 91.35235050207314 215.47633185815926 91.35235050207314 215.47633185815926 91.35235050207314 C215.47633185815926 91.35235050207314 209.4097249453813 157.27631513213748 209.4097249453813 157.27631513213748 C209.4097249453813 157.27631513213748 167.38468433141009 166.89813658390358 167.38468433141009 166.89813658390358 Z" vector-effect="non-scaling-stroke"/></g><g><defs><path id="path-17157059613692398" d="M230.76204019719387 199.57527733755947 C230.76204019719387 199.57527733755947 230.65149791429664 199.5451664025357 230.65149791429664 199.5451664025357 C230.65149791429664 199.5451664025357 230.65149791429664 222.30903328050718 230.65149791429664 222.30903328050718 C230.65149791429664 222.30903328050718 272.6575654152447 212.6735340729002 272.6575654152447 212.6735340729002 C272.6575654152447 212.6735340729002 278.7373909745924 146.44955097728476 278.7373909745924 146.44955097728476 C278.7373909745924 146.44955097728476 230.65149791429664 146.44955097728476 230.65149791429664 146.44955097728476 C230.65149791429664 146.44955097728476 230.65149791429664 168.57105124141577 230.65149791429664 168.57105124141577 C230.65149791429664 168.57105124141577 253.2121729237771 168.57105124141577 253.2121729237771 168.57105124141577 C253.2121729237771 168.57105124141577 251.0616230565037 194.86793449550981 251.0616230565037 194.86793449550981 C251.0616230565037 194.86793449550981 230.76204019719387 199.57527733755947 230.76204019719387 199.57527733755947 Z" vector-effect="non-scaling-stroke"/></defs> <path style="stroke-width: 0px; stroke-linecap: butt; stroke-linejoin: miter; fill: rgb(255, 255, 255);" d="M167.1105422828972 144.2662440570523 C167.1105422828972 144.2662440570523 167 144.2361331220286 167 144.2361331220286 C167 144.2361331220286 167 167 167 167 C167 167 209.006067500948 157.36450079239307 209.006067500948 157.36450079239307 C209.006067500948 157.36450079239307 215.0858930602958 91.14051769677758 215.0858930602958 91.14051769677758 C215.0858930602958 91.14051769677758 167 91.14051769677758 167 91.14051769677758 C167 91.14051769677758 167 113.26201796090868 167 113.26201796090868 C167 113.26201796090868 189.5606750094804 113.26201796090868 189.5606750094804 113.26201796090868 C189.5606750094804 113.26201796090868 187.410125142207 139.5589012150026 187.410125142207 139.5589012150026 C187.410125142207 139.5589012150026 167.1105422828972 144.2662440570523 167.1105422828972 144.2662440570523 Z" vector-effect="non-scaling-stroke"/></g><g><defs><path id="path-17157059613692412" d="M230.65149791429664 111.43053354463805 C230.65149791429664 111.43053354463805 281.6818354190369 111.43053354463805 281.6818354190369 111.43053354463805 C281.6818354190369 111.43053354463805 283.6514979142966 89.30903328050708 283.6514979142966 89.30903328050708 C283.6514979142966 89.30903328050708 230.65149791429664 89.30903328050708 230.65149791429664 89.30903328050708 C230.65149791429664 89.30903328050708 230.65149791429664 111.43053354463805 230.65149791429664 111.43053354463805 Z" vector-effect="non-scaling-stroke"/></defs> <path style="stroke-width: 0px; stroke-linecap: butt; stroke-linejoin: miter; fill: rgb(255, 255, 255);" d="M167 56.12150026413099 C167 56.12150026413099 218.03033750474015 56.12150026413099 218.03033750474015 56.12150026413099 C218.03033750474015 56.12150026413099 220 34 220 34 C220 34 167 34 167 34 C167 34 167 56.12150026413099 167 56.12150026413099 Z" vector-effect="non-scaling-stroke"/></g></svg>