<?xml version="1.0" encoding="UTF-8"?>
<!DOCTYPE svg PUBLIC "-//W3C//DTD SVG 1.1//EN" "http://www.w3.org/Graphics/SVG/1.1/DTD/svg11.dtd">
<svg xmlns="http://www.w3.org/2000/svg" xmlns:xlink="http://www.w3.org/1999/xlink" version="1.1" width="125px" height="109px" viewBox="-0.5 -0.5 125 109"><defs/><g><g data-cell-id="0"><g data-cell-id="1"><g data-cell-id="jO6dgmZSRIfbelJLF-w5-17"><g><path d="M 93.92 33.23 C 92.9 48.01 82.03 60.15 67.65 62.57 C 53.26 64.99 39.12 57.06 33.46 43.41 C 27.81 29.75 32.12 13.94 43.88 5.19 C 55.65 -3.57 71.79 -2.98 82.9 6.62 L 74.13 17.1 C 67.8 11.63 58.59 11.3 51.89 16.29 C 45.18 21.28 42.73 30.29 45.95 38.07 C 49.17 45.86 57.23 50.37 65.43 48.99 C 73.63 47.61 79.83 40.7 80.41 32.27 Z" fill="#ffffff" stroke="none" transform="rotate(90,62.5,31)" pointer-events="all"/></g></g><g data-cell-id="jO6dgmZSRIfbelJLF-w5-16"><g><rect x="0" y="27" width="125" height="81.25" rx="9.75" ry="9.75" fill="#ffffff" stroke="none" pointer-events="all"/></g></g></g></g></g></svg>