<?xml version="1.0" encoding="UTF-8"?>
<!DOCTYPE svg PUBLIC "-//W3C//DTD SVG 1.1//EN" "http://www.w3.org/Graphics/SVG/1.1/DTD/svg11.dtd">
<svg xmlns="http://www.w3.org/2000/svg" xmlns:xlink="http://www.w3.org/1999/xlink" version="1.1" width="100px" height="90px" viewBox="-0.5 -0.5 100 90" class="ge-export-svg-dark"><defs><style type="text/css">svg.ge-export-svg-dark:not(mjx-container &gt; svg) { filter: invert(100%) hue-rotate(180deg); }&#xa;svg.ge-export-svg-dark foreignObject img,&#xa;svg.ge-export-svg-dark image:not(svg.ge-export-svg-dark switch image),&#xa;svg.ge-export-svg-dark svg:not(mjx-container &gt; svg)&#xa;{ filter: invert(100%) hue-rotate(180deg) }</style></defs><g><g data-cell-id="0"><g data-cell-id="1"><g data-cell-id="SMxOwZAq8BaQxHtkUUqD-5"><g><path d="M 75 34 C 75 45.56 67.08 55.61 55.84 58.31 C 44.6 61.01 32.97 55.65 27.72 45.35 C 22.48 35.05 24.97 22.5 33.76 14.99 C 42.55 7.48 55.34 6.98 64.69 13.77 L 57.35 23.89 C 52.67 20.49 46.28 20.74 41.88 24.49 C 37.49 28.25 36.24 34.53 38.86 39.67 C 41.49 44.82 47.3 47.5 52.92 46.15 C 58.54 44.81 62.5 39.78 62.5 34 Z" fill="#ffffff" stroke="none" transform="rotate(120,50,34)" pointer-events="all"/></g></g><g data-cell-id="SMxOwZAq8BaQxHtkUUqD-4"><g><rect x="0" y="29" width="100" height="60" rx="9" ry="9" fill="#ffffff" stroke="none" pointer-events="all"/></g></g></g></g></g></svg>